<?xml version="1.0" encoding="UTF-8"?>
<svg version="1.1" xmlns="http://www.w3.org/2000/svg" width="48" height="48" fill="currentColor">
<path d="M0 0 C1.26714844 -0.01417969 2.53429687 -0.02835937 3.83984375 -0.04296875 C7.0625 0.1875 7.0625 0.1875 9.0625 2.1875 C9.0625 3.1775 9.0625 4.1675 9.0625 5.1875 C10.485625 5.125625 10.485625 5.125625 11.9375 5.0625 C15.0625 5.1875 15.0625 5.1875 17.0625 7.1875 C17.2578125 9.3515625 17.2578125 9.3515625 17.1875 11.8125 C17.16945312 12.62976562 17.15140625 13.44703125 17.1328125 14.2890625 C17.10960937 14.91554688 17.08640625 15.54203125 17.0625 16.1875 C16.4025 16.1875 15.7425 16.1875 15.0625 16.1875 C15.01351562 17.47785156 14.96453125 18.76820312 14.9140625 20.09765625 C14.83898197 21.81512347 14.76343646 23.53257041 14.6875 25.25 C14.6565625 26.09755859 14.625625 26.94511719 14.59375 27.81835938 C14.01862981 40.23137019 14.01862981 40.23137019 10.0625 44.1875 C6.77006396 44.63619661 3.44452257 44.51158242 0.125 44.5 C-1.25461914 44.52416992 -1.25461914 44.52416992 -2.66210938 44.54882812 C-3.98758789 44.54979492 -3.98758789 44.54979492 -5.33984375 44.55078125 C-6.14929443 44.55376221 -6.95874512 44.55674316 -7.79272461 44.55981445 C-10.49976745 44.08989524 -11.34667484 43.41014881 -12.9375 41.1875 C-13.46166992 39.09033203 -13.46166992 39.09033203 -13.66796875 36.6953125 C-13.74853516 35.82519531 -13.82910156 34.95507812 -13.91210938 34.05859375 C-13.98236328 33.15238281 -14.05261719 32.24617188 -14.125 31.3125 C-14.20685547 30.41402344 -14.28871094 29.51554687 -14.37304688 28.58984375 C-14.73782916 24.43929572 -14.97677494 20.35618861 -14.9375 16.1875 C-15.5975 16.1875 -16.2575 16.1875 -16.9375 16.1875 C-16.99149736 14.72957116 -17.03029177 13.27107288 -17.0625 11.8125 C-17.09730469 10.59433594 -17.09730469 10.59433594 -17.1328125 9.3515625 C-16.9375 7.1875 -16.9375 7.1875 -14.9375 5.1875 C-11.8125 5.0625 -11.8125 5.0625 -8.9375 5.1875 C-8.793125 4.548125 -8.64875 3.90875 -8.5 3.25 C-7.29078165 -1.18380062 -4.11326873 0.02087954 0 0 Z M-4.9375 4.1875 C-4.9375 4.5175 -4.9375 4.8475 -4.9375 5.1875 C-1.6375 5.1875 1.6625 5.1875 5.0625 5.1875 C5.0625 4.8575 5.0625 4.5275 5.0625 4.1875 C1.7625 4.1875 -1.5375 4.1875 -4.9375 4.1875 Z M-12.9375 9.1875 C-12.9375 10.1775 -12.9375 11.1675 -12.9375 12.1875 C-4.3575 12.1875 4.2225 12.1875 13.0625 12.1875 C13.0625 11.1975 13.0625 10.2075 13.0625 9.1875 C4.4825 9.1875 -4.0975 9.1875 -12.9375 9.1875 Z M-10.9375 16.1875 C-10.81375 19.219375 -10.69 22.25125 -10.5625 25.375 C-10.52850098 26.32141357 -10.49450195 27.26782715 -10.45947266 28.24291992 C-10.4238623 29.00193604 -10.38825195 29.76095215 -10.3515625 30.54296875 C-10.3201416 31.31278076 -10.2887207 32.08259277 -10.25634766 32.87573242 C-9.95931999 35.71548692 -9.95931999 35.71548692 -7.9375 40.1875 C-2.6575 40.1875 2.6225 40.1875 8.0625 40.1875 C9.63891805 36.24645486 10.31582957 34.48092562 10.4765625 30.54296875 C10.51217285 29.78395264 10.5477832 29.02493652 10.58447266 28.24291992 C10.61847168 27.29650635 10.6524707 26.35009277 10.6875 25.375 C10.81125 22.343125 10.935 19.31125 11.0625 16.1875 C3.8025 16.1875 -3.4575 16.1875 -10.9375 16.1875 Z " fill="currentColor" transform="translate(23.9375,1.8125)"/>
<path d="M0 0 C1.32 0 2.64 0 4 0 C4.09706112 6.11485027 3.77040851 11.93303301 3 18 C1.68 18 0.36 18 -1 18 C-1.09706112 11.88514973 -0.77040851 6.06696699 0 0 Z " fill="currentColor" transform="translate(28,21)"/>
<path d="M0 0 C1.32 0 2.64 0 4 0 C4.77040851 6.06696699 5.09706112 11.88514973 5 18 C3.68 18 2.36 18 1 18 C0.22959149 11.93303301 -0.09706112 6.11485027 0 0 Z " fill="currentColor" transform="translate(16,21)"/>
</svg>
